<mxfile host="app.diagrams.net" agent="Mozilla/5.0 (X11; Ubuntu; Linux x86_64; rv:133.0) Gecko/20100101 Firefox/133.0" version="25.0.3">
  <diagram name="Seite-1" id="2RI2WrPKpj0Hjl5yFjCe">
    <mxGraphModel dx="2004" dy="1155" grid="1" gridSize="10" guides="1" tooltips="1" connect="1" arrows="1" fold="1" page="1" pageScale="1" pageWidth="1169" pageHeight="827" math="0" shadow="0">
      <root>
        <mxCell id="0" />
        <mxCell id="1" parent="0" />
        <mxCell id="KR7If9SBcSuIjeU5gFBj-18" value="" style="rounded=0;whiteSpace=wrap;html=1;" vertex="1" parent="1">
          <mxGeometry x="449" y="161" width="450" height="280" as="geometry" />
        </mxCell>
        <mxCell id="KR7If9SBcSuIjeU5gFBj-24" style="edgeStyle=orthogonalEdgeStyle;rounded=0;orthogonalLoop=1;jettySize=auto;html=1;entryX=0;entryY=0.5;entryDx=0;entryDy=0;" edge="1" parent="1" source="KR7If9SBcSuIjeU5gFBj-17" target="KR7If9SBcSuIjeU5gFBj-21">
          <mxGeometry relative="1" as="geometry" />
        </mxCell>
        <mxCell id="KR7If9SBcSuIjeU5gFBj-17" value="" style="ellipse;whiteSpace=wrap;html=1;aspect=fixed;fillColor=#1F1F1F;" vertex="1" parent="1">
          <mxGeometry x="40" y="291" width="20" height="20" as="geometry" />
        </mxCell>
        <mxCell id="KR7If9SBcSuIjeU5gFBj-20" value="&lt;div&gt;Modelltraining&lt;/div&gt;" style="text;html=1;align=center;verticalAlign=middle;resizable=0;points=[];autosize=1;strokeColor=none;fillColor=none;" vertex="1" parent="1">
          <mxGeometry x="443" y="160" width="100" height="30" as="geometry" />
        </mxCell>
        <mxCell id="KR7If9SBcSuIjeU5gFBj-26" style="edgeStyle=orthogonalEdgeStyle;rounded=0;orthogonalLoop=1;jettySize=auto;html=1;entryX=0;entryY=0.5;entryDx=0;entryDy=0;" edge="1" parent="1" source="KR7If9SBcSuIjeU5gFBj-21" target="KR7If9SBcSuIjeU5gFBj-25">
          <mxGeometry relative="1" as="geometry" />
        </mxCell>
        <mxCell id="KR7If9SBcSuIjeU5gFBj-21" value="Datensatz" style="rounded=0;whiteSpace=wrap;html=1;" vertex="1" parent="1">
          <mxGeometry x="100" y="281" width="100" height="40" as="geometry" />
        </mxCell>
        <mxCell id="KR7If9SBcSuIjeU5gFBj-67" style="edgeStyle=orthogonalEdgeStyle;rounded=0;orthogonalLoop=1;jettySize=auto;html=1;entryX=0;entryY=0.5;entryDx=0;entryDy=0;" edge="1" parent="1" source="KR7If9SBcSuIjeU5gFBj-25" target="KR7If9SBcSuIjeU5gFBj-18">
          <mxGeometry relative="1" as="geometry" />
        </mxCell>
        <mxCell id="KR7If9SBcSuIjeU5gFBj-68" style="edgeStyle=orthogonalEdgeStyle;rounded=0;orthogonalLoop=1;jettySize=auto;html=1;entryX=0;entryY=0.5;entryDx=0;entryDy=0;" edge="1" parent="1" source="KR7If9SBcSuIjeU5gFBj-25" target="KR7If9SBcSuIjeU5gFBj-41">
          <mxGeometry relative="1" as="geometry">
            <Array as="points">
              <mxPoint x="420" y="301" />
              <mxPoint x="420" y="491" />
            </Array>
          </mxGeometry>
        </mxCell>
        <mxCell id="KR7If9SBcSuIjeU5gFBj-25" value="Unterteilung in Trainings, Evaluations und Testdaten" style="rounded=1;whiteSpace=wrap;html=1;" vertex="1" parent="1">
          <mxGeometry x="250" y="266" width="145" height="70" as="geometry" />
        </mxCell>
        <mxCell id="KR7If9SBcSuIjeU5gFBj-61" style="edgeStyle=orthogonalEdgeStyle;rounded=0;orthogonalLoop=1;jettySize=auto;html=1;entryX=0.5;entryY=0;entryDx=0;entryDy=0;endArrow=none;endFill=0;dashed=1;" edge="1" parent="1" source="KR7If9SBcSuIjeU5gFBj-27" target="KR7If9SBcSuIjeU5gFBj-28">
          <mxGeometry relative="1" as="geometry" />
        </mxCell>
        <mxCell id="KR7If9SBcSuIjeU5gFBj-27" value="Trainingsdaten" style="rounded=0;whiteSpace=wrap;html=1;" vertex="1" parent="1">
          <mxGeometry x="684" y="171" width="95" height="40" as="geometry" />
        </mxCell>
        <mxCell id="KR7If9SBcSuIjeU5gFBj-32" style="edgeStyle=orthogonalEdgeStyle;rounded=0;orthogonalLoop=1;jettySize=auto;html=1;" edge="1" parent="1" source="KR7If9SBcSuIjeU5gFBj-28" target="KR7If9SBcSuIjeU5gFBj-31">
          <mxGeometry relative="1" as="geometry">
            <Array as="points">
              <mxPoint x="826" y="251" />
            </Array>
          </mxGeometry>
        </mxCell>
        <mxCell id="KR7If9SBcSuIjeU5gFBj-28" value="Forwardpropagation" style="rounded=1;whiteSpace=wrap;html=1;" vertex="1" parent="1">
          <mxGeometry x="674" y="226" width="120" height="40" as="geometry" />
        </mxCell>
        <mxCell id="KR7If9SBcSuIjeU5gFBj-50" style="edgeStyle=orthogonalEdgeStyle;rounded=0;orthogonalLoop=1;jettySize=auto;html=1;" edge="1" parent="1" source="KR7If9SBcSuIjeU5gFBj-30" target="KR7If9SBcSuIjeU5gFBj-44">
          <mxGeometry relative="1" as="geometry" />
        </mxCell>
        <mxCell id="KR7If9SBcSuIjeU5gFBj-30" value="Backpropagation" style="rounded=1;whiteSpace=wrap;html=1;" vertex="1" parent="1">
          <mxGeometry x="577.5" y="366" width="120" height="40" as="geometry" />
        </mxCell>
        <mxCell id="KR7If9SBcSuIjeU5gFBj-35" style="edgeStyle=orthogonalEdgeStyle;rounded=0;orthogonalLoop=1;jettySize=auto;html=1;" edge="1" parent="1" source="KR7If9SBcSuIjeU5gFBj-31" target="KR7If9SBcSuIjeU5gFBj-34">
          <mxGeometry relative="1" as="geometry" />
        </mxCell>
        <mxCell id="KR7If9SBcSuIjeU5gFBj-31" value="Berechnung des Loss" style="rounded=1;whiteSpace=wrap;html=1;" vertex="1" parent="1">
          <mxGeometry x="766" y="298.5" width="120" height="40" as="geometry" />
        </mxCell>
        <mxCell id="KR7If9SBcSuIjeU5gFBj-36" style="edgeStyle=orthogonalEdgeStyle;rounded=0;orthogonalLoop=1;jettySize=auto;html=1;entryX=1;entryY=0.5;entryDx=0;entryDy=0;" edge="1" parent="1" source="KR7If9SBcSuIjeU5gFBj-34" target="KR7If9SBcSuIjeU5gFBj-30">
          <mxGeometry relative="1" as="geometry" />
        </mxCell>
        <mxCell id="KR7If9SBcSuIjeU5gFBj-40" style="edgeStyle=orthogonalEdgeStyle;rounded=0;orthogonalLoop=1;jettySize=auto;html=1;" edge="1" parent="1" source="KR7If9SBcSuIjeU5gFBj-34" target="KR7If9SBcSuIjeU5gFBj-39">
          <mxGeometry relative="1" as="geometry" />
        </mxCell>
        <mxCell id="KR7If9SBcSuIjeU5gFBj-34" value="" style="rhombus;whiteSpace=wrap;html=1;" vertex="1" parent="1">
          <mxGeometry x="812.5" y="371" width="27" height="30" as="geometry" />
        </mxCell>
        <mxCell id="KR7If9SBcSuIjeU5gFBj-38" value="&lt;div&gt;Loss größer&lt;/div&gt;&lt;div&gt;als gefodert&lt;/div&gt;" style="text;html=1;align=center;verticalAlign=middle;resizable=0;points=[];autosize=1;strokeColor=none;fillColor=none;" vertex="1" parent="1">
          <mxGeometry x="719.5" y="352" width="90" height="40" as="geometry" />
        </mxCell>
        <mxCell id="KR7If9SBcSuIjeU5gFBj-54" style="edgeStyle=orthogonalEdgeStyle;rounded=0;orthogonalLoop=1;jettySize=auto;html=1;" edge="1" parent="1" source="KR7If9SBcSuIjeU5gFBj-39" target="KR7If9SBcSuIjeU5gFBj-53">
          <mxGeometry relative="1" as="geometry" />
        </mxCell>
        <mxCell id="KR7If9SBcSuIjeU5gFBj-39" value="Berechnung der Modell-Qualität" style="rounded=1;whiteSpace=wrap;html=1;" vertex="1" parent="1">
          <mxGeometry x="766" y="461" width="120" height="60" as="geometry" />
        </mxCell>
        <mxCell id="KR7If9SBcSuIjeU5gFBj-42" style="edgeStyle=orthogonalEdgeStyle;rounded=0;orthogonalLoop=1;jettySize=auto;html=1;entryX=0;entryY=0.5;entryDx=0;entryDy=0;dashed=1;endArrow=none;endFill=0;" edge="1" parent="1" source="KR7If9SBcSuIjeU5gFBj-41" target="KR7If9SBcSuIjeU5gFBj-39">
          <mxGeometry relative="1" as="geometry" />
        </mxCell>
        <mxCell id="KR7If9SBcSuIjeU5gFBj-41" value="Testdaten" style="rounded=0;whiteSpace=wrap;html=1;" vertex="1" parent="1">
          <mxGeometry x="609" y="466" width="120" height="50" as="geometry" />
        </mxCell>
        <mxCell id="KR7If9SBcSuIjeU5gFBj-49" style="edgeStyle=orthogonalEdgeStyle;rounded=0;orthogonalLoop=1;jettySize=auto;html=1;entryX=0;entryY=0.5;entryDx=0;entryDy=0;endArrow=none;endFill=0;dashed=1;" edge="1" parent="1" source="KR7If9SBcSuIjeU5gFBj-43" target="KR7If9SBcSuIjeU5gFBj-44">
          <mxGeometry relative="1" as="geometry" />
        </mxCell>
        <mxCell id="KR7If9SBcSuIjeU5gFBj-43" value="Evaluationsdaten" style="rounded=0;whiteSpace=wrap;html=1;" vertex="1" parent="1">
          <mxGeometry x="463" y="298.5" width="95" height="40" as="geometry" />
        </mxCell>
        <mxCell id="KR7If9SBcSuIjeU5gFBj-65" style="edgeStyle=orthogonalEdgeStyle;rounded=0;orthogonalLoop=1;jettySize=auto;html=1;entryX=0.5;entryY=1;entryDx=0;entryDy=0;" edge="1" parent="1" source="KR7If9SBcSuIjeU5gFBj-44" target="KR7If9SBcSuIjeU5gFBj-63">
          <mxGeometry relative="1" as="geometry" />
        </mxCell>
        <mxCell id="KR7If9SBcSuIjeU5gFBj-44" value="Anpassung der Modell-Gewichte" style="rounded=1;whiteSpace=wrap;html=1;" vertex="1" parent="1">
          <mxGeometry x="577.5" y="296" width="120" height="45" as="geometry" />
        </mxCell>
        <mxCell id="KR7If9SBcSuIjeU5gFBj-52" value="sonst" style="text;html=1;align=center;verticalAlign=middle;resizable=0;points=[];autosize=1;strokeColor=none;fillColor=none;" vertex="1" parent="1">
          <mxGeometry x="819" y="404" width="50" height="30" as="geometry" />
        </mxCell>
        <mxCell id="KR7If9SBcSuIjeU5gFBj-60" style="edgeStyle=orthogonalEdgeStyle;rounded=0;orthogonalLoop=1;jettySize=auto;html=1;entryX=0.5;entryY=1;entryDx=0;entryDy=0;" edge="1" parent="1" source="KR7If9SBcSuIjeU5gFBj-53" target="KR7If9SBcSuIjeU5gFBj-57">
          <mxGeometry relative="1" as="geometry" />
        </mxCell>
        <mxCell id="KR7If9SBcSuIjeU5gFBj-53" value="Metrik des Modells (z.B. F1-Score)" style="rounded=0;whiteSpace=wrap;html=1;" vertex="1" parent="1">
          <mxGeometry x="939" y="461" width="120" height="60" as="geometry" />
        </mxCell>
        <mxCell id="KR7If9SBcSuIjeU5gFBj-66" style="edgeStyle=orthogonalEdgeStyle;rounded=0;orthogonalLoop=1;jettySize=auto;html=1;entryX=0;entryY=0.5;entryDx=0;entryDy=0;" edge="1" parent="1" source="KR7If9SBcSuIjeU5gFBj-55" target="KR7If9SBcSuIjeU5gFBj-63">
          <mxGeometry relative="1" as="geometry" />
        </mxCell>
        <mxCell id="KR7If9SBcSuIjeU5gFBj-55" value="" style="ellipse;whiteSpace=wrap;html=1;aspect=fixed;fillColor=#1F1F1F;" vertex="1" parent="1">
          <mxGeometry x="544" y="236" width="20" height="20" as="geometry" />
        </mxCell>
        <mxCell id="KR7If9SBcSuIjeU5gFBj-59" value="" style="group" vertex="1" connectable="0" parent="1">
          <mxGeometry x="987" y="391" width="25" height="25" as="geometry" />
        </mxCell>
        <mxCell id="KR7If9SBcSuIjeU5gFBj-57" value="" style="ellipse;whiteSpace=wrap;html=1;aspect=fixed;" vertex="1" parent="KR7If9SBcSuIjeU5gFBj-59">
          <mxGeometry width="25" height="25" as="geometry" />
        </mxCell>
        <mxCell id="KR7If9SBcSuIjeU5gFBj-58" value="" style="ellipse;whiteSpace=wrap;html=1;aspect=fixed;fillColor=#1F1F1F;" vertex="1" parent="KR7If9SBcSuIjeU5gFBj-59">
          <mxGeometry x="5.357142857142858" y="5.357142857142858" width="14.285714285714286" height="14.285714285714286" as="geometry" />
        </mxCell>
        <mxCell id="KR7If9SBcSuIjeU5gFBj-64" style="edgeStyle=orthogonalEdgeStyle;rounded=0;orthogonalLoop=1;jettySize=auto;html=1;entryX=0;entryY=0.5;entryDx=0;entryDy=0;" edge="1" parent="1" source="KR7If9SBcSuIjeU5gFBj-63" target="KR7If9SBcSuIjeU5gFBj-28">
          <mxGeometry relative="1" as="geometry" />
        </mxCell>
        <mxCell id="KR7If9SBcSuIjeU5gFBj-63" value="" style="rhombus;whiteSpace=wrap;html=1;" vertex="1" parent="1">
          <mxGeometry x="624" y="231" width="27" height="30" as="geometry" />
        </mxCell>
      </root>
    </mxGraphModel>
  </diagram>
</mxfile>
